<?xml version="1.0" encoding="UTF-8"?>
<svg version="1.1" viewBox="0 0 1600 800" width="1280" height="1280" xmlns="http://www.w3.org/2000/svg">
<path transform="translate(726 317)" d="m0 0c1.26-0 2.52-0 3.81-0.01 3.41 0 6.82 0.02 10.2 0.05 3.58 0.03 7.16 0.03 10.7 0.03 5.99 0.01 12 0.04 18 0.08 8.46 0.06 16.9 0.08 25.4 0.1 5.86 0.01 11.7 0.03 17.6 0.05 1.42 0.01 2.84 0.01 4.27 0.02 4.65 0.01 9.31 0.04 14 0.07 1.18 0 2.36 0.01 3.58 0.01 1.07 0.01 2.14 0.02 3.24 0.03 0.93 0.01 1.87 0.01 2.83 0.02 2.1 0.13 2.1 0.13 3.1 1.13 0.07 2.7 0.09 5.37 0.06 8.07 0 0.75-0.01 1.51-0.01 2.29-0.01 1.88-0.03 3.76-0.05 5.64-5.78 0.13-11.6 0.25-17.4 0.37-2.19 0.05-4.37 0.09-6.56 0.14-15 0.32-29.9 0.53-44.9 0.66-2.66 0.02-5.31 0.04-7.96 0.07-0.87 0-1.75 0.01-2.65 0.02-1.77 0.02-3.54 0.03-5.31 0.05-5.26 0.05-10.5 0.08-15.8 0.11-3.33 0.02-6.66 0.05-9.99 0.09-1.56 0.01-3.12 0.02-4.68 0.02-13.1-0.06-13.1-0.06-25.1 4.95-5.88 6.17-10.3 13.4-10.8 22.1 0.23 9.64 1.93 16.6 9.06 23.4 7.23 5.77 12.4 7.15 21.6 7.18 1.3 0.01 1.3 0.01 2.62 0.02 1.87 0.01 3.75 0.02 5.62 0.03 2.98 0.02 5.95 0.04 8.92 0.07 8.45 0.07 16.9 0.13 25.4 0.18 5.17 0.03 10.3 0.07 15.5 0.12 1.97 0.02 3.94 0.03 5.9 0.04 2.76 0.01 5.52 0.03 8.28 0.06h2.43c7.17 0.09 14.1 1.25 20.7 4.24 0.72 0.32 1.44 0.64 2.18 0.97 2.04 1.15 3.37 2.37 4.95 4.09 0.74 0.73 1.48 1.45 2.25 2.19 6.06 6.2 10.8 11.6 13.8 19.8 0.36 0.87 0.71 1.74 1.08 2.64 1.24 4.55 1.3 8.85 1.29 13.6v2.83c-0.16 9.12-2.27 16.4-7.37 24h-2c-0.21 0.73-0.41 1.45-0.63 2.19-1.85 3.79-3.97 5.34-7.37 7.81h-2l-1 3c-2.63 1.5-2.63 1.5-6 3-0.96 0.52-1.92 1.04-2.9 1.57-5.45 2.31-11.2 1.89-17.1 1.9-1.3 0.01-2.59 0.02-3.93 0.04-3.53 0.03-7.07 0.05-10.6 0.07-3.7 0.01-7.41 0.04-11.1 0.07-6.21 0.05-12.4 0.09-18.6 0.12-7.19 0.03-14.4 0.08-21.6 0.14-6.91 0.06-13.8 0.11-20.7 0.15-2.95 0.02-5.89 0.04-8.83 0.06-4.1 0.03-8.21 0.05-12.3 0.07-1.83 0.01-1.83 0.01-3.71 0.03-1.11 0-2.22 0-3.37 0.01-0.97 0-1.94 0.01-2.94 0.01-2.3-0.24-2.3-0.24-4.3-2.24-0.2-3.04-0.2-3.04-0.13-6.62 0.02-1.19 0.04-2.38 0.06-3.6 0.02-0.92 0.04-1.83 0.07-2.78 4.1-1.95 7.37-2.24 11.9-2.21 0.68 0 1.35 0 2.05 0.01 2.25 0 4.49 0.02 6.74 0.04 1.59 0.01 3.18 0.02 4.78 0.02 3.38 0.01 6.76 0.03 10.2 0.05 7.9 0.05 15.8 0.06 23.7 0.07 2.63 0 5.25 0.01 7.88 0.01 13.2 0.02 26.4 0.02 39.6-0.19 1.93-0.03 3.86-0.05 5.79-0.07 12.7 0.03 12.7 0.03 24.7-3.88 1.71-0.85 1.71-0.85 3.71-0.85 0.15-0.96 0.15-0.96 0.31-1.93 0.23-0.68 0.45-1.37 0.69-2.07 0.99-0.33 1.98-0.66 3-1 5.27-7.2 6.94-14.5 6.6-23.3-0.97-5.94-3.58-10.6-6.6-15.7l-1-3c-1.31-0.71-2.65-1.37-4-2-1.3-1.03-2.59-2.06-3.88-3.09-6.07-4.07-12-3.65-19.1-3.46-2 0.02-4.01 0.04-6.02 0.05-2.78 0.03-5.57 0.09-8.36 0.15-4.23 0.08-8.45 0.13-12.7 0.17-3.29 0.04-6.57 0.08-9.86 0.14-1.17 0.02-2.34 0.04-3.55 0.06-1.55 0.03-1.55 0.03-3.13 0.06-2.46-0.08-2.46-0.08-4.46-1.08-2.71-0.23-5.41-0.42-8.13-0.56-0.75-0.04-1.5-0.09-2.28-0.13-1.86-0.11-3.73-0.21-5.59-0.31v2c-9.32 0.46-17.6 0.58-26-4-0.5-0.99-0.5-0.99-1-2-0.72-0.1-1.45-0.21-2.19-0.31-3.76-0.92-6.01-3.04-8.75-5.62-0.53-0.5-1.05-0.99-1.6-1.5-9.64-9.35-13.4-20.1-13.9-33.4 0.27-11 3.04-23 11.2-30.8 1.17-1.02 2.36-2.01 3.58-2.97 1.67-1.35 3.14-2.8 4.65-4.33 9.49-7.49 20.5-9.75 32.3-9.58zm-13.3 1.58v1h5v-1h-5z" fill="#2F2F2F"/>
<path transform="translate(474,301)" d="m0 0c3.74 2.75 6.6 5.75 9.54 9.29 1.55 1.86 1.55 1.86 3.77 4.02 2.57 2.57 5.05 5.2 7.5 7.88 0.79 0.86 1.58 1.72 2.4 2.6 1.79 2.21 1.79 2.21 1.79 4.21 0.56 0.23 1.13 0.46 1.71 0.7 2.9 1.65 4.7 3.68 6.91 6.18 1.17 1.29 1.17 1.29 2.36 2.61 1.72 2.14 2.94 4 4.02 6.51h2c4 4.47 4 4.47 4 7 0.99 0.33 1.98 0.66 3 1 1.61 1.6 1.61 1.6 3.31 3.62 0.61 0.73 1.23 1.45 1.86 2.19 0.6 0.72 1.21 1.44 1.83 2.19 1.04 1.23 2.08 2.46 3.12 3.69 0.44 0.52 0.88 1.04 1.33 1.57 1.24 1.4 2.55 2.74 3.88 4.07 2.84 2.84 5.58 5.77 8.29 8.73 1.05 1.15 2.1 2.29 3.15 3.43 0.53 0.58 1.06 1.16 1.61 1.76 1.61 1.74 3.23 3.47 4.85 5.2 0.5 0.54 1.01 1.09 1.54 1.65 0.97 1.04 1.95 2.08 2.93 3.12 3.3 3.55 3.3 3.55 3.3 5.78h2c1.59 1.57 1.59 1.57 3.38 3.69 0.62 0.73 1.24 1.46 1.89 2.22 1.3 1.57 2.58 3.17 3.85 4.78 1.68 2.06 3.45 3.89 5.34 5.76 3.22 3.24 6.34 6.59 9.48 9.93 0.69 0.72 1.38 1.45 2.09 2.21 12 12.7 12 12.7 12 15.4 0.59 0.26 1.19 0.51 1.8 0.78 2.41 1.34 3.69 2.67 5.45 4.78 0.6 0.71 1.19 1.41 1.81 2.14 0.64 0.76 1.28 1.52 1.94 2.3 1.43 1.65 2.87 3.3 4.31 4.94 0.66 0.75 1.31 1.5 1.99 2.27 1.59 1.88 1.59 1.88 3.7 2.79 0-0.74 0-1.48-0.01-2.24-0.04-18-0.07-36-0.09-54-0.01-8.7-0.03-17.4-0.05-26.1-0.02-7.58-0.03-15.2-0.04-22.7 0-4.02-0.01-8.03-0.02-12-0.01-3.78-0.02-7.55-0.02-11.3 0-1.39 0-2.78-0.01-4.17-0.01-1.89 0-3.78 0-5.67 0-1.06 0-2.12-0.01-3.22 0.25-2.49 0.25-2.49 2.25-4.49 2.75-0.27 2.75-0.27 6-0.25 1.07-0.01 2.14-0.01 3.25-0.02 2.75 0.27 2.75 0.27 4.75 2.27 0.21 2.5 0.29 4.88 0.28 7.38 0 0.77 0.01 1.54 0.02 2.33 0.01 2.59 0.02 5.18 0.02 7.77 0.01 1.86 0.02 3.71 0.03 5.56 0.03 5.04 0.04 10.1 0.05 15.1 0.02 5.26 0.05 10.5 0.07 15.8 0.05 9.97 0.09 19.9 0.12 29.9 0.04 11.4 0.09 22.7 0.14 34 0.1 23.4 0.19 46.7 0.27 70.1-3.81-3.12-7.14-5.93-10-10v-2h-2v-2h-2v-2c-0.99-0.33-1.98-0.66-3-1-1.39-1.62-2.71-3.3-4-5-2.55-3.07-5.11-6.11-7.94-8.94-1.87-1.87-3.58-3.8-5.31-5.81-2.48-2.87-5.05-5.59-7.75-8.25-4.49-4.43-8.58-9.15-12.7-14-0.79-0.92-0.79-0.92-1.59-1.86-0.69-0.82-0.69-0.82-1.39-1.65-1.36-1.59-1.36-1.59-3.03-3.11-1.33-1.43-1.33-1.43-1.33-3.43-0.99-0.33-1.98-0.66-3-1-1.33-1.32-1.33-1.32-2.81-3.12-3.58-4.23-7.33-8.28-11.1-12.3-8.32-8.89-8.32-8.89-11.9-12.9-0.61-0.68-1.23-1.36-1.86-2.05-1.26-1.64-1.26-1.64-1.26-3.64-0.87-0.37-0.87-0.37-1.77-0.75-2.56-1.44-4.07-3.03-5.98-5.25-0.61-0.7-1.23-1.4-1.86-2.12-1.39-1.88-1.39-1.88-1.39-3.88-0.99-0.33-1.98-0.66-3-1-1.5-1.52-1.5-1.52-3-3.38-1.91-2.33-3.86-4.5-6-6.62-1.03-1.16-2.05-2.33-3.06-3.5-3.89-4.49-7.94-8.84-12-13.2-1.94-2.32-1.94-2.32-1.94-4.32-0.57-0.24-1.14-0.47-1.73-0.72-2.76-1.56-4.44-3.4-6.52-5.78-0.71-0.79-1.41-1.59-2.14-2.41-1.61-2.09-1.61-2.09-1.61-4.09-1.49-0.5-1.49-0.5-3-1l-3-3-1 146h-14c-2.44-2.44-2.24-3.76-2.26-7.1 0-0.71 0.01-1.42 0.01-2.16v-2.29c-0.01-2.55 0-5.1 0.01-7.64 0-1.82-0.01-3.65-0.01-5.47 0-4.95 0-9.91 0.01-14.9 0.01-5.17 0.01-10.4 0.01-15.5 0-8.69 0.01-17.4 0.02-26.1 0.02-10.1 0.03-20.1 0.02-30.2 0-9.67 0.01-19.3 0.02-29v-12.4c0-4.85 0.01-9.7 0.02-14.6v-5.35c0-2.43 0.01-4.85 0.02-7.28-0.01-0.72-0.01-1.43-0.01-2.17 0.03-4.85 0.03-4.85 1.14-5.96z" fill="#2F2F2F"/>
<path transform="translate(1103,302)" d="m0 0h3v186h-86c-1.87-1.87-1.17-4.94-1.19-7.44-0.01-1.17-0.03-2.35-0.04-3.56 0.23-3 0.23-3 2.23-5 2.86-0.24 2.86-0.24 6.56-0.23h2.07c2.22 0 4.44 0.02 6.66 0.03 1.37 0.01 2.74 0.01 4.1 0.01 5.08 0.01 10.2 0.04 15.2 0.07 11.4 0.04 22.7 0.08 34.4 0.12v-128c-3.95 1.97-4.88 2.84-7.31 6.25-2.18 2.91-4.22 5.37-7.07 7.63-4.13 3.32-7.24 7.39-10.5 11.5-1.94 2.38-3.79 4.58-6.11 6.59h-3c-0.12 0.6-0.25 1.2-0.38 1.81-0.62 2.19-0.62 2.19-2.62 5.19h-2c-0.26 0.75-0.51 1.5-0.78 2.27-1.27 2.85-2.5 4.33-4.74 6.47-0.69 0.68-1.39 1.35-2.1 2.05-0.72 0.68-1.45 1.37-2.19 2.09-4.99 4.77-9.31 9.4-13.2 15.1-2.69 2.94-2.69 2.94-5 5h-2c-0.5 1.98-0.5 1.98-1 4h-2v2c-1.43 1.33-1.43 1.33-3.31 2.81-3.02 2.49-4.76 4.77-6.69 8.19-2.56 2.81-2.56 2.81-5 5h-2c-0.27 0.64-0.54 1.28-0.81 1.94-1.19 2.06-1.19 2.06-4.19 3.06-0.69 1.32-1.35 2.66-2 4-1.39 1.68-2.84 3.33-4.31 4.94-0.81 0.88-1.62 1.77-2.45 2.68-1.58 1.68-3.21 3.33-4.86 4.94-2.17 2.22-4 4.48-5.88 6.94-2.64 3.45-5.24 6.62-8.5 9.5h-2c-0.23 0.72-0.45 1.44-0.69 2.19-1.58 3.38-3.58 5.28-6.31 7.81-2.37 2.3-4.16 4.24-6 7h-2c-0.27 0.64-0.54 1.28-0.81 1.94-1.19 2.06-1.19 2.06-4.19 3.06-1.01 1.77-1.01 1.77-2 4-1.32 2.01-2.65 4.01-4 6-2.63-4.59-2.33-8.77-2.31-13.9-0.03-1.34-0.03-1.34-0.05-2.71 0-4.92 0.1-8.39 3.36-12.4 1.45-1.21 1.45-1.21 2.94-2.44 3.14-2.38 3.14-2.38 5-5.5 2.2-3.26 4.52-5.33 7.57-7.76 1.62-1.25 1.62-1.25 2.49-3.3h2v-2h2c0.25-0.78 0.5-1.57 0.75-2.38 1.4-2.94 2.26-3.52 5.25-4.62v-3c0.62-0.06 1.24-0.12 1.88-0.19 1.05-0.4 1.05-0.4 2.12-0.81 0.69-1.66 1.35-3.33 2-5 2.19-2.38 2.19-2.38 5-5 5.92-5.75 11.4-11.8 16.6-18.2 2.34-2.76 4.83-5.26 7.38-7.81 0.9-1.1 1.8-2.2 2.69-3.31 0.76-0.89 1.52-1.78 2.31-2.69h2v-2h2c0.23-0.72 0.45-1.44 0.69-2.19 1.58-3.38 3.58-5.28 6.31-7.81 3.35-3.24 6.33-6.71 9.32-10.3 1.68-1.71 1.68-1.71 4.68-2.71 0.19-0.87 0.19-0.87 0.38-1.75 0.93-3.35 3.1-4.9 5.62-7.25 0.87-0.91 1.73-1.81 2.62-2.75 2.38-2.25 2.38-2.25 5.38-3.25 0.29-0.74 0.58-1.49 0.88-2.25 1.41-3.47 3.41-5.17 6.12-7.75 1.01-1.16 2.01-2.32 3-3.5 2.53-2.99 5.23-5.73 8-8.5 1.77-2.06 3.52-4.14 5.25-6.23 1.81-1.83 3.4-2.77 5.75-3.77v-2h2c0.34-1.08 0.34-1.08 0.69-2.19 1.58-3.4 3.57-5.26 6.31-7.81 5.31-5.17 10.2-10.7 14.8-16.5 1.11-1.24 1.11-1.24 2.25-2.5z" fill="#2F2F2F"/>
<path transform="translate(71.8 318)" d="m0 0h3.68c0.67-0 1.35-0 2.04-0.01 2.27 0 4.55 0.01 6.82 0.02 1.62-0.01 3.25-0.01 4.87-0.01 4.42-0 8.84 0 13.3 0.01 4.61 0.01 9.23 0.01 13.8 0.01 7.75 0 15.5 0.01 23.2 0.02 8.98 0.02 18 0.02 26.9 0.02 8.62 0 17.2 0.01 25.8 0.02h11c4.32 0 8.64 0.01 13 0.02h4.77c2.16 0 4.33 0.01 6.49 0.02h3.68c2.69 0.13 2.69 0.13 3.69 1.13v16c-24.8 0.33-49.5 0.66-75 1l-1 153h-14c-2.72-2.72-2.26-4.17-2.28-7.97-0.01-1.28-0.02-2.55-0.03-3.86 0-1.42-0.01-2.84-0.01-4.26-0.01-1.49-0.02-2.98-0.03-4.46-0.03-4.05-0.04-8.1-0.05-12.2-0.02-4.22-0.05-8.45-0.07-12.7-0.05-8-0.09-16-0.12-24-0.04-9.11-0.09-18.2-0.14-27.3-0.1-18.8-0.19-37.5-0.27-56.3-1.37 0.01-1.37 0.01-2.76 0.01-8.56 0.04-17.1 0.07-25.7 0.09-4.4 0.01-8.81 0.03-13.2 0.05-4.25 0.02-8.49 0.03-12.7 0.04-1.62 0-3.25 0.01-4.87 0.02-2.27 0.01-4.53 0.02-6.8 0.02-1.29 0-2.59 0-3.92 0.01-3.01-0.24-3.01-0.24-5.01-2.24-0.27-3.19-0.27-3.19-0.25-7-0.01-1.26-0.01-2.52-0.02-3.81 0.35-4.11 0.94-5.07 5.09-5.44z" fill="#303030"/>
<path transform="translate(1164 210)" d="m0 0c1.48 0.02 1.48 0.02 3 0.04 0.99 0.01 1.98 0.02 3 0.02 2.43 0.17 2.43 0.17 3.43 1.17 0.1 2.01 0.13 4.02 0.13 6.03v3.99c0 1.49 0 2.97-0.01 4.45 0 1.56 0.01 3.12 0.01 4.68 0 4.31-0.01 8.62-0.01 12.9v13.9c0 8.04-0.01 16.1-0.01 24.1-0.01 11.6-0.01 23.2-0.01 34.9 0 18.9-0.01 37.7-0.02 56.6-0.01 18.3-0.02 36.7-0.02 55v3.42c0 5.66 0 11.3-0.01 17-0.01 47-0.02 94-0.05 141-1.95 0.05-3.91 0.09-5.87 0.13-1.09 0.02-2.18 0.04-3.31 0.07-2.82-0.2-2.82-0.2-4.82-2.2-0.25-2.65-0.25-2.65-0.25-6.1 0-1.31-0.01-2.61-0.01-3.96 0-1.47 0-2.94 0.01-4.4 0-1.55-0.01-3.1-0.01-4.64-0.01-4.27 0-8.54 0-12.8 0.01-4.59 0-9.19-0.01-13.8v-27c0.01-7.32 0.01-14.6 0.01-22v-3.15c-0.01-2.11-0.01-4.23-0.01-6.34 0-19.8 0-39.6 0.01-59.5 0.01-17 0.01-34.1 0-51.1-0.01-19.8-0.01-39.5-0.01-59.3 0-2.1 0.01-4.2 0.01-6.31v-3.14c0-7.31 0-14.6-0.01-21.9 0-8.91 0-17.8 0.01-26.7v-13.6c-0.01-4.16 0-8.32 0.01-12.5 0-1.51 0-3.02-0.01-4.53 0-2.04 0-4.08 0.01-6.12v-3.45c0.35-3.62 1.18-4.55 4.82-4.88z" fill="#ED923D"/>
<path transform="translate(272 318)" d="m0 0h3.68c0.67-0 1.35-0 2.04-0.01 2.27 0 4.55 0.01 6.82 0.02 1.62-0.01 3.25-0.01 4.87-0.01 4.42-0 8.84 0 13.3 0.01 4.61 0.01 9.23 0.01 13.8 0.01 7.75 0 15.5 0.01 23.2 0.02 8.98 0.02 18 0.02 26.9 0.02 8.62 0 17.2 0.01 25.8 0.02h11c4.32 0 8.64 0.01 13 0.02h4.77c2.16 0 4.33 0.01 6.49 0.02h3.68c2.69 0.13 2.69 0.13 3.69 1.13 0.07 2.7 0.09 5.37 0.06 8.06 0 0.76-0.01 1.52-0.01 2.3-0.01 1.88-0.03 3.76-0.05 5.64-102 1.1-102 1.1-137 1.18-2.61 0-5.22 0.01-7.83 0.03-3.54 0.01-7.08 0.02-10.6 0.02-1.52 0.01-1.52 0.01-3.08 0.02-0.91 0-1.82-0.01-2.75-0.01-1.18 0-1.18 0-2.38 0.01-1.89-0.25-1.89-0.25-3.89-2.25-0.27-3.19-0.27-3.19-0.25-7-0.01-1.26-0.01-2.52-0.02-3.81 0.35-4.11 0.94-5.07 5.09-5.44z" fill="#303030"/>
<path transform="translate(272 395)" d="m0 0h3.68c0.67-0 1.35-0 2.04-0.01 2.27 0 4.55 0.01 6.82 0.02 1.62-0.01 3.25-0.01 4.87-0.01 4.42-0 8.84 0 13.3 0.01 4.61 0.01 9.23 0.01 13.8 0.01 7.75 0 15.5 0.01 23.2 0.02 8.98 0.02 18 0.02 26.9 0.02 8.62 0 17.2 0.01 25.8 0.02h11c4.32 0 8.64 0.01 13 0.02h4.77c2.16 0 4.33 0.01 6.49 0.02h3.68c2.69 0.13 2.69 0.13 3.69 1.13 0.07 2.7 0.09 5.37 0.06 8.06 0 0.76-0.01 1.52-0.01 2.3-0.01 1.88-0.03 3.76-0.05 5.64-21.3 0.05-42.6 0.08-63.9 0.1-9.9 0.01-19.8 0.03-29.7 0.05-8.62 0.02-17.2 0.03-25.9 0.04-4.57 0-9.14 0.01-13.7 0.02-4.29 0.01-8.59 0.02-12.9 0.02-1.58 0-3.16 0-4.73 0.01-2.16 0.01-4.31 0-6.46 0h-3.66c-2.92-0.23-4.59-0.71-7.05-2.24-0.05-2.13-0.09-4.25-0.13-6.38-0.02-1.18-0.04-2.36-0.07-3.58 0.26-4.04 0.97-4.93 5.02-5.29z" fill="#303030"/>
<path transform="translate(892 318)" d="m0 0c1.17 0.01 2.35 0.03 3.56 0.04 1.76 0.01 1.76 0.01 3.56 0.02 2.88 0.17 2.88 0.17 3.88 1.17 0.09 2.19 0.12 4.38 0.12 6.57v2.11c0 2.35 0 4.69-0.01 7.04v5.02c0 4.57-0.01 9.13-0.01 13.7-0.01 4.76-0.01 9.52-0.01 14.3 0 9.02-0.01 18-0.02 27.1-0.01 10.3-0.02 20.5-0.02 30.8-0.01 21.1-0.03 42.3-0.05 63.4-2.3 0.05-4.59 0.09-6.88 0.13-1.28 0.02-2.55 0.04-3.87 0.07-3.25-0.2-3.25-0.2-5.25-2.2-0.26-2.85-0.26-2.85-0.26-6.57 0-0.68 0-1.36-0.01-2.06-0.01-2.3 0-4.6 0.01-6.89-0.01-1.65-0.01-3.29-0.01-4.93-0.01-4.47-0.01-8.94 0-13.4 0-4.67 0-9.34-0.01-14 0-7.84 0.01-15.7 0.02-23.5 0.01-9.08 0-18.2-0.01-27.2-0.01-7.78-0.01-15.6 0-23.3 0-4.66 0-9.31-0.01-14 0-4.37 0-8.75 0.01-13.1 0.01-1.61 0.01-3.22 0-4.83 0-2.19 0-4.37 0.01-6.56v-3.72c0.36-4.04 1.23-4.77 5.26-5.08z" fill="#303030"/>
<path transform="translate(272 472)" d="m0 0h3.68c0.67-0 1.35-0 2.04-0.01 2.27 0 4.55 0.01 6.82 0.02 1.62-0.01 3.25-0.01 4.87-0.01 4.42-0 8.84 0 13.3 0.01 4.61 0.01 9.23 0.01 13.8 0.01 7.75 0 15.5 0.01 23.2 0.02 8.98 0.02 18 0.02 26.9 0.02 8.62 0 17.2 0.01 25.8 0.02h11c4.32 0 8.64 0.01 13 0.02h4.77c2.16 0 4.33 0.01 6.49 0.02h3.68c2.69 0.13 2.69 0.13 3.69 1.13 0.07 2.53 0.09 5.03 0.06 7.56 0 0.71-0.01 1.42-0.01 2.16-0.01 1.76-0.03 3.52-0.05 5.28-21.8 0.02-43.5 0.04-65.3 0.05-10.1 0.01-20.2 0.01-30.3 0.02-8.81 0.01-17.6 0.02-26.4 0.02-4.66 0-9.32 0.01-14 0.01-4.38 0.01-8.76 0.01-13.2 0.01-1.61 0-3.23 0-4.84 0.01h-6.58-3.73c-2.73-0.12-2.73-0.12-3.73-1.12-0.13-2.14-0.18-4.29-0.19-6.44-0.01-1.17-0.03-2.35-0.04-3.56 0.31-4.01 1.02-4.89 5.05-5.25z" fill="#303030"/>
<path transform="translate(25.7 318)" d="m0 0c0.97 0.01 1.95 0.01 2.95 0.02 2.36 0.17 2.36 0.17 3.36 1.17 0.1 2.1 0.13 4.21 0.13 6.31v2.02c0.01 2.25 0.01 4.5 0 6.76 0 1.6 0.01 3.21 0.01 4.82v13.1c-0.01 4.58 0 9.16 0 13.7 0 7.7 0 15.4-0.01 23.1v26.7c0.01 7.64 0.01 15.3 0.01 22.9v13.7c0 4.29 0 8.58-0.01 12.9 0 1.58 0 3.15 0.01 4.73 0 2.15-0.01 4.3-0.01 6.45v3.64c-0.11 2.85-0.47 5.41-1.13 8.18-1.79 0.22-3.58 0.42-5.37 0.62-1 0.12-2 0.23-3.03 0.35-0.85 0.01-1.71 0.02-2.6 0.03-5.92-5.92-3.17-22.6-3.2-30.6-0.01-1.51-0.02-3.03-0.03-4.55-0.03-4.08-0.05-8.17-0.07-12.2-0.02-4.28-0.05-8.56-0.08-12.8-0.05-8.09-0.09-16.2-0.13-24.3-0.05-9.21-0.11-18.4-0.16-27.6-0.12-18.9-0.22-37.9-0.33-56.8 3.44-1.85 5.76-2.25 9.69-2.19zm-8.69 13.2 1 2z" fill="#EC913C"/>
<path transform="translate(1440 343)" d="m0 0c1.79 0.02 1.79 0.02 3.62 0.04 1.8 0.01 1.8 0.01 3.63 0.02 0.93 0.01 1.85 0.03 2.81 0.04l1 2c1.01-0.05 1.01-0.05 2.05-0.11 0.89-0.02 1.78-0.05 2.7-0.08 0.88-0.03 1.76-0.07 2.67-0.11 3.03 0.35 4.33 1.3 6.58 3.3l-8 1c0.49 1.01 0.99 2.02 1.5 3.06 1.89 4.42 2.27 8.47 0.81 13.1-2.19 3.02-4.99 5.15-8.31 6.81-2.21 0.07-4.42 0.08-6.63 0.06-1.18-0.01-2.37-0.02-3.6-0.03-0.91-0.01-1.83-0.02-2.77-0.03l-2 8c1 0.03 1 0.03 2.03 0.07 3.06 0.13 6.1 0.31 9.16 0.49 1.05 0.04 2.11 0.07 3.19 0.11 7.61 0.51 7.61 0.51 10.4 2.82 2.97 3.95 4.03 7.38 3.7 12.3-1 4.15-3.12 6.71-6.53 9.21-8.29 3.94-17.2 3.91-26 1.76-4.32-1.64-6.54-5.05-9.01-8.76 0.25-2.38 0.25-2.38 1-5 0.25-0.91 0.49-1.82 0.75-2.75 1.25-2.25 1.25-2.25 3.87-3.06 0.79-0.07 1.57-0.13 2.38-0.19-0.09-0.68-0.17-1.35-0.26-2.05-0.15-1.34-0.15-1.34-0.3-2.7-0.11-0.88-0.21-1.77-0.32-2.67-0.12-2.51 0.03-4.24 0.88-6.58l2-2c-0.64-0.56-1.28-1.12-1.94-1.69-2.26-2.53-2.69-4-3.06-7.31h-2c1.84-11.1 1.84-11.1 5-15 2.62-1.75 2.62-1.75 5-3 1-1 1-1 3.94-1.1zm-5.94 10.1c-0.5 4.47-0.8 8.58 1.44 12.6 3.75 2.1 7.28 2.65 11.6 2.44 3.05-1.34 4.51-2.03 6-5 0.38-4.64 0.37-7.16-1.5-11.4-2.89-2.96-4.43-3.57-8.47-3.81-3.74 0.46-6.42 2.64-9.03 5.25zm8.88 34.1c-1.06 0.05-2.11 0.1-3.19 0.16-0.99 0.04-1.98 0.09-2.99 0.14-3.37 0.76-4.63 1.87-6.7 4.61-0.34 3.67-0.34 3.67 0 7 6.34 4.71 12.3 4.83 20 4 4.26-1.52 5.5-2.25 8-6-0.3-4.16-0.67-6.51-3-10-4.09-0.27-8.03-0.03-12.1 0.09z" fill="#EC913C"/>
<path transform="translate(902,273)" d="m0 0c3.9 3.36 7.78 7.94 8.34 13.1 0.13 12.3 0.13 12.3-4.34 17.9-4.4 4-8.69 4.34-14.4 4.29-4.94-0.55-8.06-3.07-11.9-6.17-4.03-5.07-4.34-10.9-3.69-17.1 1.57-6.16 4.52-8.54 9.65-11.8 5.55-2.74 10.7-2.54 16.4-0.16z" fill="#2F2F2F"/>
<path transform="translate(34 274)" d="m0 0c0.66 0.52 1.32 1.03 2 1.56v2c0.99 0.33 1.98 0.66 3 1 3.03 5.61 2.48 11.8 2 18-1.3 4.36-2.48 5.6-6.06 8.38-4.52 2.27-9 2.42-13.9 1.62-4.38-1.63-8.05-4.37-11-8-1.78-5.62-1.56-11.2 0.12-16.8 2.66-4.6 5.63-6.94 10.3-9.62 4.9-1.17 9.11-0.35 13.6 1.81z" fill="#EC913C"/>
<path transform="translate(1494,343)" d="m0 0c3.44 1.5 3.44 1.5 6 3v2c0.6 0.21 1.2 0.41 1.81 0.62 3.21 2.02 3.88 3.82 5.19 7.38 0.52 3.66 0.81 7.31 1 11-3.3 1.1-5.73 1.11-9.2 1.1-1.21-0.01-2.42-0.01-3.66-0.01-1.26-0.01-2.53-0.02-3.83-0.03-1.91 0-1.91 0-3.86-0.01-3.15-0.01-6.3-0.03-9.45-0.05 0.27 1.45 0.56 2.9 0.85 4.34 0.16 0.81 0.31 1.62 0.47 2.45 1 3.27 2.79 4.52 5.68 6.21 3.73 1.24 7.18 1.07 11.1 1 7.67-0.13 7.67-0.13 9.94 1-0.88 3.88-0.88 3.88-2 5-3.03 0.18-6.03 0.28-9.06 0.31-0.84 0.03-1.67 0.06-2.53 0.09-6 0.06-10.4-1-15.4-4.4-1.84-1.82-1.84-1.82-2.94-3.56-0.38-0.58-0.76-1.16-1.15-1.76-3.2-5.92-2.5-13.2-1.91-19.7 2.35-7.1 6.61-10.9 12.9-14.8 3.7-1.48 6.16-1.67 10.1-1.25zm-13 10-3 9h23c-0.53-6.31-0.53-6.31-2-9h-2l-2-4c-7.91-0.64-7.91-0.64-14 4z" fill="#ED923D"/>
<path transform="translate(1349,346)" d="m0 0c2.19 2.31 2.19 2.31 4 5 0.56 0.7 1.11 1.4 1.69 2.12 2.03 4.45 2.06 9.05 2.31 13.9-10 1.1-19.9 1.1-30 1 1.11 7.49 1.11 7.49 6 13 2.77 0.92 4.38 1.12 7.23 1.1 0.8-0.01 1.61-0.01 2.43-0.01 0.84-0.01 1.67-0.02 2.53-0.03 1.26 0 1.26 0 2.56-0.01 2.08-0.01 4.17-0.03 6.25-0.05v4c-5.58 3.72-12.4 3.36-18.9 2.43-6.36-1.32-9.25-4.5-12.9-9.59-3.35-5.14-2.6-10.9-2.2-16.8 0.73-3.14 1.76-6.03 3-9l1-3c1.52-1.35 1.52-1.35 3.38-2.62 0.6-0.43 1.21-0.86 1.83-1.29 5.79-3.52 13.9-2.99 19.8-0.09zm-17 5v2c-0.99 0.33-1.98 0.66-3 1-1.23 3.01-1.23 3.01-2 6 1.79 2.21 1.79 2.21 4.15 2.23 1.31-0.02 1.31-0.02 2.64-0.03 1.41-0.01 1.41-0.01 2.85-0.02 0.99-0.02 1.97-0.04 2.98-0.06 1 0 1.99-0.01 3.01-0.02 2.46-0.03 4.91-0.06 7.37-0.1-0.85-4.7-1.82-9.29-5.75-12.4-4.69-1.3-8.19-1.33-12.2 1.38z" fill="#EC913C"/>
<path transform="translate(1449 427)" d="m0 0c1.39-0.02 1.39-0.02 2.81-0.04 4.08 0.34 6.74 1.27 9.74 4.1 0.87 1.05 0.87 1.05 1.76 2.13 0.6 0.7 1.19 1.4 1.8 2.12 3.45 4.45 2.71 9.2 2.77 14.6 0.02 0.99 0.05 1.98 0.08 3 0.06 6.11-0.33 9.59-4.4 14.2-5.34 5.06-10.4 5.38-17.5 5.27-5.63-0.62-9.1-3.62-12.8-7.71-4.19-5.27-5.41-9.83-4.69-16.6 1.39-7.82 2.9-13.4 9-18.8 3.65-2.28 7.2-2.41 11.4-2.44zm-11.4 10.2c-2.78 6.54-3.33 14.9-1.14 21.7 1.76 3.6 3.68 6.23 7.14 8.34 5.03 0.91 9.59 0.72 14-2 4.83-5.63 4.77-12 4.46-19.2-0.58-4.88-1.83-8.46-5.46-11.8-6.44-3.82-13.8-2.21-19 3zm-8 16 1 3z" fill="#ED923D"/>
<path transform="translate(1290 428)" d="m0 0c5.03 3.29 8.06 6.45 10.2 12.1 1.08 7.25 1.76 16.1-1.32 22.9-1.6 2-3.16 3.69-5.12 5.35-0.57 0.5-1.15 1-1.74 1.51-4.6 3.12-10.5 2.71-15.8 2.23-5.53-2.08-9.83-4.91-12.8-10.1-3.23-8.75-2.62-17.2 0.75-25.9 5.94-9.78 15.2-10.6 25.8-8.12zm-16.8 7.12c-0.74 0.5-1.48 1-2.25 1.5-2.03 1.48-2.03 1.48-2.75 4.5-0.95 10.4-0.95 10.4 1.63 20.3 3.1 3.51 5.67 5.41 10.4 5.89 5.61 0.15 5.61 0.15 10.3-2.49 4.98-6.81 4.78-14.7 3.61-22.7-1.77-4.12-3.88-7.93-8-10-5.44-0.35-8.52-0.36-13 3z" fill="#ED923D"/>
<path transform="translate(1510 428)" d="m0 0c3.18 2.06 4.43 3.98 6.12 7.38 1.04 5.32 2.48 13 0 18-0.09 2.28-0.12 4.58-0.12 6.87 0 1.23-0.01 2.47-0.01 3.74 0.11 2.69 0.33 4.84 1.13 7.39-2.37 0.62-2.37 0.62-5 1-2.88-2.89-2.28-5.03-2.34-9.06-0.01-0.7-0.03-1.4-0.04-2.11-0.05-2.24-0.08-4.47-0.12-6.71-0.04-2.94-0.09-5.87-0.15-8.8-0.03-1.97-0.03-1.97-0.06-3.97-0.26-3.09-0.46-4.87-2.29-7.35-5.57-1.57-9.63-0.71-15 1-0.99 0.66-1.98 1.31-3 2-0.4 2.68-0.62 5.15-0.73 7.85-0.04 0.77-0.08 1.54-0.12 2.34-0.12 2.48-0.23 4.95-0.33 7.43-0.08 1.68-0.17 3.35-0.25 5.03-0.2 4.12-0.39 8.23-0.57 12.4-2.43-0.38-2.43-0.38-5-1-1.69-3.39-1.11-7.23-1.09-11v-2.68c0.01-2.83 0.02-5.67 0.03-8.5 0.01-1.92 0.01-3.84 0.02-5.75 0.01-4.71 0.02-9.42 0.04-14.1 1.82-0.63 1.82-0.63 4-1 1 0.66 1.99 1.31 3 2 2.32-0.31 4.04-1.02 6.13-2.07 5.15-1.68 10.5-1.45 15.8-0.31z" fill="#ED923D"/>
<path transform="translate(1547,344)" d="m0 0c2.81 2.44 2.81 2.44 5 5l2 2c1.4 3.74 1.13 7.68 1.1 11.6 0 0.73-0.01 1.45-0.01 2.2 0 2.31-0.01 4.63-0.03 6.94 0 1.57-0.01 3.14-0.01 4.71-0.01 3.85-0.03 7.69-0.05 11.5-4.88-0.88-4.88-0.88-6-2-0.11-2.15-0.16-4.3-0.18-6.45-0.02-1.34-0.04-2.67-0.07-4.01-0.03-2.11-0.06-4.22-0.08-6.32-0.01-2.04-0.05-4.07-0.1-6.11-0.01-1.22-0.02-2.43-0.04-3.69-0.63-4.06-1.95-6.26-4.53-9.42-3.91-1.48-5.63-1.14-9.56 0.31-1.7 0.84-1.7 0.84-3.44 1.69l-5 2v33c-2.47 0.5-2.47 0.5-5 1-2.6-2.6-2.24-4.38-2.25-7.92 0-0.81 0.01-1.61 0.02-2.45v-2.52c0-1.76 0.01-3.52 0.02-5.28 0.02-2.69 0.02-5.38 0.02-8.07 0.01-1.71 0.02-3.42 0.02-5.13 0-0.8 0-1.61 0.01-2.43 0.03-3.57 0.2-6.77 1.16-10.2h3l1 4c2.34-0.26 4.68-0.59 7-1l1-2c5.35-1.75 9.45-2.57 15-1z" fill="#EB913C"/>
<path transform="translate(1338,427)" d="m0 0c1.47 2.93 1.2 5.6 1.28 8.87 0.02 0.68 0.04 1.36 0.06 2.06 0.06 2.17 0.11 4.34 0.16 6.51 0.07 2.85 0.14 5.7 0.22 8.56 0.03 1.27 0.06 2.54 0.09 3.85 0.21 3.44 0.4 5.4 2.94 7.82 2.66 1.57 4.19 1.67 7.25 1.58 0.85-0.02 1.69-0.03 2.56-0.05 2.26-0.18 4.27-0.58 6.44-1.2 2.12-7.11 3.26-13.5 3.04-20.9-0.07-5.39 0.48-10.7 0.96-16.1 1.94-0.56 1.94-0.56 4-1 1.8 1.8 1.24 4.52 1.32 6.95 0.04 1.24 0.08 2.48 0.12 3.76 0.04 1.31 0.08 2.63 0.12 3.98 0.05 1.26 0.09 2.52 0.13 3.82 0.28 8.5 0.36 17 0.31 25.5-1.86 0.62-1.86 0.62-4 1-2.25-1.94-2.25-1.94-4-4-0.66 0.47-1.32 0.95-2 1.44-3.64 1.89-6.98 2.28-11 2.56-0.99 0.12-1.98 0.25-3 0.38-4.31-0.54-7.78-2.46-11-5.38-1.22-3.47-1.13-6.87-1.13-10.5 0-1.27-0.01-2.54-0.01-3.85 0.01-0.66 0.01-1.31 0.01-1.99 0-2 0-4-0.01-6 0-1.27 0.01-2.54 0.01-3.85v-3.51c0.13-3.2 0.4-6.16 1.13-9.28 2-1 2-1 4-1z" fill="#EC913C"/>
<path transform="translate(1277 348)" d="m0 0c4.48 7.56 3.12 17.4 3.06 25.9 0 1.29-0.01 2.59-0.01 3.93-0.01 3.19-0.03 6.38-0.05 9.57-3.75 1.12-3.75 1.12-6 0v-32h-2c-0.33-1-0.66-1.99-1-3-3.74-2.5-6.68-2.51-11-2-3.92 1.25-5.5 2.16-7.62 5.71-2.38 5.91-1.96 12.5-2.07 18.7-0.03 1.31-0.07 2.61-0.1 3.95-0.08 3.21-0.15 6.41-0.21 9.62-4.88-0.88-4.88-0.88-6-2-0.1-2.87-0.14-5.7-0.13-8.56 0-0.86 0-1.72-0.01-2.61 0-1.82 0.01-3.64 0.01-5.46 0-2.8 0-5.59-0.01-8.38 0-1.77 0.01-3.54 0.01-5.3 0-0.84-0.01-1.68-0.01-2.55 0.03-5.92 0.03-5.92 1.14-8.14 2.96 0.61 4.38 1.25 7 3 1.03-0.64 2.06-1.28 3.12-1.94 7.42-4.17 15.4-4.15 21.9 1.56z" fill="#ED923D"/>
<path transform="translate(1543 427)" d="m0 0c1.68-0 1.68-0 3.4-0.01 2.87 0.12 5.44 0.48 8.22 1.13 0.33 2.32 0.67 4.63 1 7-1.07-0.32-2.14-0.66-3.24-1-5.55-1.41-11.1-1.17-16.8-1-0.66 2.32-1.31 4.63-2 7 6.93 3.84 13.9 7.52 21 11v3h2c1.77 3.54 1.8 7.17 1 11-2.46 3.37-5.47 5.44-9.37 6.88-0.87 0.04-1.73 0.08-2.63 0.12-1 0.06-1 0.06-2.02 0.12-5.34 0.17-9.88-0.51-15-2.12-0.66-0.65-1.31-1.31-2-2 0.38-2.12 0.38-2.12 1-4 0.65 0.15 1.29 0.29 1.95 0.44 10.3 2.4 10.3 2.4 20-0.44 1.18-2.3 1.18-2.3 1-5-1.54-3.56-2.66-4.82-6.14-6.66-1.21-0.46-2.42-0.92-3.67-1.4-4.83-1.87-9.07-3.75-13.2-6.94-1.12-3.37-1.12-3.37-1-7 4.19-7.76 7.63-10.1 16.4-10.1z" fill="#EC913C"/>
<path transform="translate(1239 427)" d="m0 0h2.15c3.74 0.07 5.49 0.26 8.66 2.38v2c0.66 0.32 1.32 0.66 2 1h-2l-1 3c-0.67-0.33-1.35-0.66-2.04-1-3.57-1.21-6.5-1.2-10.3-1.13-1.25 0.02-2.51 0.04-3.8 0.05-1.43 0.04-1.43 0.04-2.89 0.08v8c3.98 2.41 7.65 4.25 12.1 5.74 5.37 2.1 8.43 5.06 10.9 10.3 0.89 4.67 0.45 6.3-2.12 10.3-5.53 5.16-11.5 5.05-18.7 4.95-4.01-0.34-6.66-1.32-10.2-3.26 0.33-1.65 0.66-3.31 1-5 0.55 0.14 1.09 0.28 1.65 0.43 6.01 1.48 12.6 3.01 18.5 0.73 2.1-1.11 2.1-1.11 2.94-3.98 0.2-3.37 0.2-3.37-2.44-5.81-3.45-2.52-7.25-3.85-11.2-5.36-3.82-1.57-6.41-3.21-9.48-6.01-1.32-4.06-1.28-6.16 0.07-10.2 4.29-6.24 9.01-7.44 16.1-7.19z" fill="#EC913C"/>
<path transform="translate(1440 343)" d="m0 0c1.79 0.02 1.79 0.02 3.62 0.04 1.8 0.01 1.8 0.01 3.63 0.02 0.93 0.01 1.85 0.03 2.81 0.04l1 2c1.01-0.05 1.01-0.05 2.05-0.11 0.89-0.02 1.78-0.05 2.7-0.08 0.88-0.03 1.76-0.07 2.67-0.11 3.03 0.35 4.33 1.3 6.58 3.3l-8 1c0.49 1.01 0.99 2.02 1.5 3.06 1.89 4.42 2.27 8.47 0.81 13.1-2.19 3.02-4.99 5.15-8.31 6.81-2.21 0.07-4.42 0.08-6.63 0.06-1.18-0.01-2.37-0.02-3.6-0.03-0.91-0.01-1.83-0.02-2.77-0.03l-1 2c-3.43-1.14-4.09-2.05-6.19-4.88-0.53-0.7-1.06-1.39-1.6-2.11-1.21-2.01-1.21-2.01-1.21-5.01h-2c1.84-11.1 1.84-11.1 5-15 2.62-1.75 2.62-1.75 5-3 1-1 1-1 3.94-1.1zm-5.94 10.1c-0.5 4.47-0.8 8.58 1.44 12.6 3.75 2.1 7.28 2.65 11.6 2.44 3.05-1.34 4.51-2.03 6-5 0.38-4.64 0.37-7.16-1.5-11.4-2.89-2.96-4.43-3.57-8.47-3.81-3.74 0.46-6.42 2.64-9.03 5.25z" fill="#E9903C"/>
<path transform="translate(1386,418)" d="m0 0c0.99 0.33 1.98 0.66 3 1 1.19 3.56 1.19 3.56 2 7 2.97 0.33 5.94 0.66 9 1l1 6h-11v31c4.4 2.2 7.19 2.52 12 3 0.56 1.94 0.56 1.94 1 4-1.7 1.7-3.8 1.29-6.12 1.38-4.78-0.07-7.73-0.81-11.6-3.5-3.68-5.56-2.39-14.8-2.36-21.2-0.01-0.99-0.01-1.98-0.02-3 0-0.94 0.01-1.89 0.01-2.87v-2.59c0.13-2.23 0.13-2.23 1.13-5.23l-7-2 2-4h4c0.19-1.08 0.19-1.08 0.38-2.19 0.61-2.77 1.5-5.21 2.62-7.81z" fill="#ED923D"/>
<path transform="translate(1573,334)" d="m0 0c3 2 3 2 3.51 3.95 0.16 2.01 0.33 4.03 0.49 6.05 0.63 0.03 1.25 0.05 1.9 0.08 1.22 0.08 1.22 0.08 2.48 0.17 1.21 0.07 1.21 0.07 2.46 0.14 2.16 0.61 2.16 0.61 3.45 2.66 0.23 0.64 0.47 1.29 0.71 1.95l-1 1h-11v31c3.63 0.66 7.26 1.32 11 2l2 4c-1.86 1.86-4.88 1.17-7.38 1.19-1.74 0.02-1.74 0.02-3.52 0.04-3.1-0.23-3.1-0.23-6.1-2.23v-2h-2c-1.09-3.58-1.2-7-1.32-10.7-0.06-1.95-0.06-1.95-0.12-3.93-0.04-1.36-0.08-2.73-0.12-4.09-0.05-1.38-0.09-2.76-0.13-4.14-0.11-3.37-0.21-6.74-0.31-10.1-0.99-0.33-1.98-0.66-3-1l-1-3c1.31-1.5 1.31-1.5 3-3h3c0.05-0.64 0.1-1.28 0.15-1.93 0.07-0.83 0.15-1.66 0.23-2.51 0.06-0.82 0.13-1.64 0.21-2.49 0.13-0.69 0.27-1.37 0.41-2.07l2-1z" fill="#ED923D"/>
<path transform="translate(1297,335)" d="m0 0c0.99 0.33 1.98 0.66 3 1 0.1 1.11 0.21 2.23 0.31 3.38 0.34 1.79 0.34 1.79 0.69 3.62 3.64 2.43 5.71 2.16 10 2l2 4c-1 1-1 1-3.47 1.06-2.02-0.04-4.04-0.08-6.06-0.12-2.41-0.23-2.41-0.23-3.47 1.06-0.1 1.81-0.13 3.62-0.13 5.43 0 1.1-0.01 2.21-0.01 3.35 0.01 1.17 0.01 2.33 0.02 3.53-0.01 1.16-0.01 2.31-0.02 3.5 0.01 1.67 0.01 1.67 0.01 3.37v3.09c0.12 2.43 0.33 4.44 1.13 6.73 3.28 2.39 7.06 2.54 11 3l1 5c-1.92 0.05-3.83 0.09-5.75 0.12-1.07 0.03-2.13 0.05-3.23 0.08-4.64-0.3-4.64-0.3-7.02-2.2-4.7-7.46-3.44-16.6-3.44-25.1-0.02-1.23-0.04-2.45-0.06-3.71v-3.37c-0.22-2.93-0.22-2.93-2.53-4.56-0.65-0.41-1.3-0.82-1.97-1.24v-2c0.76-0.14 1.53-0.29 2.31-0.44 3.74-2.17 4.06-4.64 5.21-8.66 0.16-0.63 0.32-1.25 0.48-1.9z" fill="#EC913C"/>
<path transform="translate(1369,326)" d="m0 0h3c2.21 3.54 2.17 6.24 1.98 10.4-0.06 1.25-0.11 2.5-0.16 3.8-0.05 0.99-0.05 0.99-0.1 1.99-0.16 3.41-0.29 6.81-0.42 10.2-0.06 1.32-0.11 2.63-0.17 3.99-0.16 4.51-0.25 9.01-0.25 13.5-0.01 1.21-0.01 2.42-0.01 3.67 0.1 2.65 0.33 5.1 0.7 7.71 0.43 3.74 0.43 3.74-0.57 6.74-1.98-0.66-3.96-1.32-6-2-0.05-7.53-0.08-15.1-0.1-22.6-0.01-3.5-0.03-6.99-0.05-10.5-0.03-4.01-0.04-8.03-0.05-12-0.01-1.26-0.02-2.51-0.03-3.81v-3.52c0-1.02-0.01-2.05-0.01-3.11 0.24-2.44 0.24-2.44 2.24-4.44z" fill="#ED923D"/>
<path transform="translate(1314,409)" d="m0 0h3c2.3 3.45 2.24 4.7 2.23 8.76v3.58c-0.01 1.27-0.02 2.55-0.03 3.86-0.01 1.3-0.01 2.61-0.01 3.95-0.01 3.47-0.03 6.94-0.05 10.4-0.02 3.54-0.03 7.07-0.04 10.6-0.02 6.95-0.06 13.9-0.1 20.8-1.88 0.62-1.88 0.62-4 1-2-2-2-2-2.25-4.51 0-1.06 0.01-2.12 0.01-3.21-0.01-1.2-0.01-2.39-0.01-3.63 0-1.3 0.01-2.6 0.02-3.94v-4.02c0-2.8 0.01-5.61 0.02-8.42 0.02-3.61 0.03-7.22 0.02-10.8 0-2.77 0.01-5.54 0.02-8.3 0-1.98 0-3.96 0.01-5.94 0-1.19 0.01-2.39 0.01-3.62 0.01-1.06 0.01-2.12 0.02-3.21 0.13-2.38 0.13-2.38 1.13-3.38z" fill="#ED923D"/>
<path transform="translate(1389,326)" d="m0 0 5 1v61c-1.98-0.66-3.96-1.32-6-2-0.11-20-0.06-40 1-60z" fill="#ED923D"/>
<path transform="translate(1416,427)" d="m0 0c1.13 2.26 1.15 3.57 1.21 6.08 0.02 0.84 0.04 1.68 0.06 2.55 0.01 0.91 0.03 1.82 0.05 2.75s0.04 1.86 0.06 2.82c0.06 2.97 0.12 5.95 0.18 8.92 0.05 2.02 0.09 4.03 0.13 6.05 0.11 4.94 0.21 9.89 0.31 14.8-2.38 0.62-2.38 0.62-5 1-2.65-2.65-2.26-4.64-2.3-8.25v-2.59c-0.01-0.88-0.01-1.76-0.01-2.66-0.01-1.86-0.01-3.72-0.01-5.58 0.01-2.84-0.02-5.69-0.04-8.54v-5.41c-0.01-0.85-0.02-1.7-0.03-2.58 0.05-5.96 0.05-5.96 1.79-8.14 1.6-1.25 1.6-1.25 3.6-1.25z" fill="#ED923D"/>
<path transform="translate(1225,345)" d="m0 0h4c1.14 4.52 1.13 8.95 1.1 13.6 0 0.82-0.01 1.63-0.01 2.47 0 2.59-0.01 5.17-0.03 7.76 0 1.76-0.01 3.52-0.01 5.28-0.01 4.3-0.03 8.61-0.05 12.9-2.38 0.62-2.38 0.62-5 1-2.63-2.63-2.25-4.54-2.28-8.12 0.01-0.84 0.01-1.67 0.01-2.54v-2.6c0-1.81 0-3.63 0.01-5.44 0.01-2.79 0-5.57-0.01-8.36v-5.28c0-0.84 0-1.68-0.01-2.54 0.05-5.89 0.05-5.89 2.28-8.12z" fill="#ED923D"/>
<path transform="translate(1412,345)" d="m0 0c0.99 0.33 1.98 0.66 3 1v41c-1.48 0.5-1.48 0.5-3 1l-3-2c-0.3-2.87-0.42-5.53-0.4-8.4 0-0.84 0-1.67-0.01-2.53 0-1.76 0.01-3.53 0.02-5.29 0.01-2.7 0-5.4-0.02-8.11 0-1.71 0.01-3.42 0.01-5.13 0-0.81-0.01-1.62-0.02-2.46 0.07-5.69 0.07-5.69 1.94-7.82 0.49-0.41 0.98-0.83 1.48-1.26z" fill="#ED923D"/>
<path transform="translate(1414,411)" d="m0 0c0.99 0.33 1.98 0.66 3 1l1 8h-6c-0.69-2.81-0.69-2.81-1-6 1.44-1.88 1.44-1.88 3-3z" fill="#ED923D"/>
<path transform="translate(1228,328)" d="m0 0c2 3 2 3 1.62 5.69-0.2 0.76-0.41 1.52-0.62 2.31-4 0-4 0-6-1-0.19-2.38-0.19-2.38 0-5 3-2 3-2 5-2z" fill="#ED923D"/>
<path transform="translate(1411,328)" d="m0 0c1.94 0.69 1.94 0.69 4 2 0.75 2.62 0.75 2.62 1 5l-4 2c-3-2-3-2-3.88-3.94-0.12-2.06-0.12-2.06 1.32-3.81 0.51-0.41 1.03-0.82 1.56-1.25z" fill="#ED923D"/>
<path transform="translate(1300,351)" d="m0 0h1v25h-1v-25z" fill="#303030"/>
<path transform="translate(1373,360)" d="m0 0h1v17h-1v-17z" fill="#303030"/>
<path transform="translate(729,411)" d="m0 0h15v1h-15v-1z" fill="#07090B"/>
<path transform="translate(1516,453)" d="m0 0h1v14h-1v-14z" fill="#303030"/>
<path transform="translate(674,360)" d="m0 0h1v11h-1v-11z" fill="#212122"/>
<path transform="translate(32,483)" d="m0 0h1v5h-1v-5z" fill="#303030"/>
<path transform="translate(802,412)" d="m0 0 4 1z" fill="#07090B"/>
<path transform="translate(1532,344)" d="m0 0 2 1z" fill="#ED923D"/>
</svg>
